<?xml version="1.0" encoding="utf-8"?>
<!-- Generator: Adobe Illustrator 16.0.0, SVG Export Plug-In . SVG Version: 6.00 Build 0)  -->
<!DOCTYPE svg PUBLIC "-//W3C//DTD SVG 1.1//EN" "http://www.w3.org/Graphics/SVG/1.1/DTD/svg11.dtd">
<svg version="1.1" id="レイヤー_1" xmlns="http://www.w3.org/2000/svg" xmlns:xlink="http://www.w3.org/1999/xlink" x="0px"
	 y="0px" width="455px" height="131px" viewBox="0 0 455 131" enable-background="new 0 0 455 131" xml:space="preserve">
<g>
	<rect x="37.934" y="85.616" fill="#F8F0A3" width="19.333" height="44.667"/>
	<circle fill="#95D4EC" cx="47.601" cy="47.283" r="47"/>
	<g>
		<path fill="#231815" d="M105.007,51.843c1.11,0,1.628,0.074,2.812,0.074c0.814,0,1.332-0.444,1.332-1.11
			c0-0.147,0-0.296-0.074-0.444c-1.184-3.33-2.886-8.14-4.292-12.284c-0.222-0.592-0.444-0.962-1.258-0.962
			c-1.11-0.074-5.772-0.074-10.435-0.074c-4.663,0-9.325,0-10.361,0.074c-0.814,0-1.036,0.443-1.184,1.036
			C80.66,40.964,77.7,50.585,77.7,50.881c0,0.592,0.444,1.036,1.332,1.036c1.184,0,1.628,0,2.738-0.074
			c1.258,0,2.368,0.888,2.368,2.146c0,1.109-0.74,2.146-2.22,2.146c-0.074,0-0.074,0-0.148,0c-1.999-0.073-4.07-0.147-6.143-0.147
			c-2.442,0-4.811,0.074-6.883,0.147c-1.702,0.074-2.294-1.258-2.294-2.146c0-1.11,0.666-2.146,2.072-2.146h0.074
			c0.962,0,1.333,0.074,2.516,0.074c0.74,0,1.554-0.592,1.851-1.555C77.33,36.672,84.804,15.654,88.06,6.256
			c0.888-2.664,2.886-3.923,4.884-3.923c2.072,0,4.218,1.406,5.181,4.07c4.218,11.989,12.137,34.561,15.689,43.737
			c0.74,1.776,1.85,1.776,2.442,1.776c0.74,0,1.184-0.074,1.924-0.074c1.258,0,2.368,0.888,2.368,2.146
			c0,1.109-0.74,2.146-2.22,2.146c-0.074,0-0.074,0-0.148,0c-1.998-0.073-4.218-0.147-6.512-0.147c-2.22,0-4.515,0.074-6.586,0.147
			c-2.22,0.074-2.294-1.775-2.294-2.146c0-1.036,0.74-2.146,2.146-2.146H105.007z M102.713,32.084
			c-2.294-6.957-6.883-19.76-8.067-23.46c-0.296-0.962-0.888-1.48-1.48-1.48c-0.592,0-1.258,0.592-1.702,1.776
			c-1.184,3.256-7.993,22.794-7.993,23.756c0,0.296,0.222,0.518,0.814,0.518c1.11,0,5.18,0.074,9.176,0.074
			c3.922,0,7.845-0.074,8.659-0.074c0.518,0,0.74-0.222,0.74-0.518C102.861,32.527,102.787,32.306,102.713,32.084z"/>
		<path fill="#231815" d="M126.242,39.262c0-10.286,7.252-17.687,17.095-17.687s17.243,7.4,17.243,17.687
			c0,10.657-7.4,17.762-17.243,17.762S126.242,49.919,126.242,39.262z M156.214,39.262c0-8.362-5.772-13.839-12.877-13.839
			s-12.803,5.477-12.803,13.839c0,8.289,5.698,13.839,12.803,13.839S156.214,47.551,156.214,39.262z"/>
		<path fill="#231815" d="M200.763,56.062c-1.924-0.074-3.701-0.148-5.328-0.148c-1.629,0-3.258,0.074-4.959,0.148
			c-0.073,0-0.073,0-0.147,0c-1.332,0-1.998-0.963-1.998-1.925c0-1.924,1.479-1.924,1.998-1.924c1.923,0,1.923-0.444,1.923-0.518
			c0-0.074-0.074-0.223-0.146-0.297c-3.923-3.848-9.992-9.473-12.286-11.841c-0.74-0.813-1.48-0.888-2.22-0.888
			c-1.11,0-1.185,0.666-1.185,4.515c0,1.775,0,4.144,0.074,7.696c0,0.74,0.37,1.258,1.258,1.258c1.11,0,1.036,0,2.072-0.074h0.074
			c1.406,0,2.146,0.963,2.146,1.999c0,1.035-0.739,1.998-2.146,1.998h-0.074c-1.924-0.074-3.849-0.148-5.772-0.148
			c-1.851,0-3.626,0.074-5.328,0.148c-1.702,0.073-2.221-1.11-2.221-1.925c0-1.036,0.74-2.072,2.146-2.072h0.074
			c0.888,0,1.036,0.074,2.22,0.074c0.74,0,1.258-0.443,1.258-1.258c0.148-7.771,0.223-17.762,0.223-26.79
			c0-5.181-0.074-10.139-0.074-14.135c0-2.072-0.592-2.887-2.442-2.96c-1.628,0-1.628,0-1.628,0H168.2
			c-1.332,0-2.072-1.036-2.072-2.072c0-1.925,1.332-2.146,3.923-2.146c6.068,0,6.586,3.923,6.586,5.551
			c0,9.547-0.147,25.235-0.147,25.235c0,0.814,0.518,1.185,1.258,1.185c0.814,0,1.11-0.074,12.803-8.141
			c0.223-0.148,0.296-0.296,0.296-0.37c0-0.148-0.147-0.223-0.518-0.223c-1.332,0-3.108,0-3.108-1.775
			c0-0.962,0.666-1.925,1.998-1.925c0.074,0,0.074,0,0.148,0c1.85,0.074,3.477,0.074,5.18,0.074c1.629,0,3.404,0,5.328-0.074
			c0.74-0.073,2.146,0.148,2.146,1.925c0,0.962-0.74,1.924-2.072,1.924h-0.074c-1.035,0-0.443-0.074-1.48-0.074
			c-0.592,0-1.332,0.296-1.85,0.666c-4.367,2.96-10.065,6.809-13.691,9.177c-0.444,0.296-0.592,0.519-0.592,0.74
			c0,0.518,1.924,2.294,15.318,14.579c0.74,0.74,1.406,0.888,2.146,0.888c0.297,0,0.666-0.074,1.111-0.074
			c1.184-0.073,2.072,0.666,2.072,1.925c0,1.036-0.666,2.072-2.072,2.072H200.763z"/>
		<path fill="#231815" d="M221.111,56.135c-1.998-0.073-4.219-0.147-6.292-0.147c-2.072,0-4.145,0.074-5.92,0.147
			c-0.297,0-2.295,0.074-2.295-2.071c0-1.036,0.74-2.072,2.221-2.072h0.074c0.963,0,1.406,0.073,2.664,0.073
			c0.889,0,1.332-0.518,1.332-1.479c0.074-7.03,0.148-14.283,0.148-20.722c0-2.146-0.74-3.33-2.516-3.404
			c-0.594,0-0.963,0.074-1.555,0.074c-0.074,0-0.074,0-0.148,0c-1.332,0-1.998-1.036-1.998-1.998c0-1.11,0.74-2.221,2.146-2.221
			s1.184,0.074,2.887,0.074c4.071,0,5.475,2.96,5.475,6.068c0,0.074,0,0.148,0,0.223c-0.072,5.18-0.146,10.805-0.146,16.207
			c0,1.924,0,3.922,0,5.772c0,0.739,0.443,1.405,1.332,1.405c1.184,0,1.48,0,2.59-0.073c0.295,0,2.295-0.074,2.295,2.072
			c0,1.035-0.74,2.071-2.221,2.071H221.111z M213.636,8.846c-0.369,0-3.479,0-3.479-3.552c0-2.368,2.072-3.479,3.553-3.479
			c2.293,0,3.625,1.702,3.625,3.479C217.335,5.886,216.966,8.846,213.636,8.846z"/>
		<path fill="#231815" d="M251.668,51.769c0.812,0,1.479,0.074,2.367,0.074c0.223,0,0.518,0,0.74,0c0.592,0,1.258-0.518,1.258-1.332
			c0.074-7.696,0.148-15.393,0.148-23.09c0-6.364-0.074-12.654-0.148-19.019c0-0.889-0.518-1.48-1.332-1.48
			c-1.184,0-2.146,0.074-3.033,0.074c-0.445,0-2.295-0.074-2.369-2.146c0.074-1.036,0.74-2.072,2.221-2.072c0.074,0,0.074,0,0.148,0
			c1.701,0.074,3.699,0.148,5.771,0.148c2.516,0,5.107-0.074,7.475-0.148c2.221-0.074,2.369,1.851,2.369,2.146
			c-0.074,1.036-0.74,2.072-2.221,2.072c-0.074,0-0.074,0-0.148,0c-1.109-0.074-1.701-0.074-2.887-0.074
			c-0.887,0-1.406,0.518-1.406,1.406c0,2.664-0.072,5.402-0.072,8.066s0.072,5.328,0.072,8.066c0,1.406,0.371,1.628,1.406,1.702
			c4.59,0.148,9.326,0.296,13.988,0.296c4.736,0,9.547-0.147,14.209-0.296c1.332-0.074,1.332-1.258,1.332-7.771
			c0-3.404-0.074-6.809-0.148-10.139c0-0.888-0.518-1.332-1.332-1.332c-1.258,0-1.998,0.074-2.961,0.074
			c-0.443,0-2.293-0.074-2.293-2.146c0-1.036,0.666-2.072,2.146-2.072c0.072,0,0.072,0,0.146,0c1.703,0.074,3.701,0.148,5.773,0.148
			c2.516,0,5.105-0.074,7.475-0.148c2.146-0.074,2.367,1.851,2.367,2.146c0,1.036-0.74,2.072-2.221,2.072c-0.072,0-0.072,0-0.146,0
			c-1.111-0.074-1.777-0.074-2.961-0.074c-0.889,0-1.332,0.518-1.332,1.332c-0.074,7.03-0.148,14.061-0.148,21.092
			c0,7.03,0.074,14.061,0.148,21.091c0,0.814,0.443,1.406,1.406,1.406c1.109,0,1.85-0.074,2.887-0.074
			c1.184,0,2.367,0.593,2.367,2.221c0,1.109-0.74,2.146-2.221,2.146c-0.072,0-0.072,0-0.146,0c-1.998-0.073-4.145-0.147-6.217-0.147
			c-2.441,0-4.885,0.074-7.031,0.147c-1.109,0.074-2.293-0.518-2.293-2.22c0-1.036,0.666-2.146,2.146-2.146c0.072,0,0.072,0,0.146,0
			c0.963,0,1.777,0.074,3.035,0.074c0.814,0,1.258-0.518,1.258-1.332c0.074-3.034,0.074-6.143,0.074-9.177
			c0-3.108,0-6.143-0.074-9.177c0-1.554-0.592-1.775-1.406-1.775c-4.588-0.148-9.25-0.148-13.84-0.148
			c-4.588,0-9.176,0-13.838,0.148c-0.963,0-1.703,0.073-1.703,1.554c-0.072,3.034-0.072,6.143-0.072,9.251
			c0,3.107,0,6.142,0.072,9.25c0,0.74,0.445,1.406,1.332,1.406c1.111,0,1.926-0.074,2.961-0.074c1.109,0,2.369,0.593,2.369,2.221
			c0,1.109-0.74,2.146-2.221,2.146c-0.074,0-0.074,0-0.148,0c-1.998-0.073-4.145-0.147-6.217-0.147
			c-2.441,0-4.883,0.074-7.029,0.147c-1.111,0.074-2.295-0.518-2.295-2.146c0-1.11,0.74-2.221,2.221-2.221H251.668z"/>
		<path fill="#231815" d="M321.598,56.135c-1.998-0.073-4.217-0.147-6.289-0.147s-4.145,0.074-5.922,0.147
			c-0.295,0-2.293,0.074-2.293-2.071c0-1.036,0.74-2.072,2.221-2.072h0.072c0.963,0,1.406,0.073,2.666,0.073
			c0.887,0,1.332-0.518,1.332-1.479c0.072-7.03,0.146-14.283,0.146-20.722c0-2.146-0.74-3.33-2.516-3.404
			c-0.592,0-0.963,0.074-1.555,0.074c-0.074,0-0.074,0-0.146,0c-1.332,0-1.998-1.036-1.998-1.998c0-1.11,0.738-2.221,2.145-2.221
			s1.186,0.074,2.887,0.074c4.07,0,5.477,2.96,5.477,6.068c0,0.074,0,0.148,0,0.223c-0.074,5.18-0.148,10.805-0.148,16.207
			c0,1.924,0,3.922,0,5.772c0,0.739,0.445,1.405,1.332,1.405c1.184,0,1.48,0,2.59-0.073c0.297,0,2.295-0.074,2.295,2.072
			c0,1.035-0.74,2.071-2.221,2.071H321.598z M314.123,8.846c-0.369,0-3.477,0-3.477-3.552c0-2.368,2.072-3.479,3.551-3.479
			c2.295,0,3.627,1.702,3.627,3.479C317.824,5.886,317.455,8.846,314.123,8.846z"/>
		<path fill="#231815" d="M341.947,56.062c-1.924-0.074-4.07-0.148-6.068-0.148s-3.996,0.074-5.697,0.148
			c-1.703,0.073-2.221-1.11-2.221-1.925c0-1.036,0.74-2.072,2.146-2.072h0.074c0.961,0,1.332,0.074,2.516,0.074
			c0.74,0,1.184-0.518,1.184-1.332c0.074-5.698,0.148-10.213,0.148-15.171c0-1.851,0-3.7,0-5.772c0-1.998-0.592-3.33-2.441-3.404
			c-0.666,0-0.592,0-1.555,0.074h-0.074c-1.332,0-1.998-1.036-1.998-2.072c0-1.11,0.666-2.146,2.072-2.146h2.072
			c2.961,0,5.402,1.259,5.846,3.923c0,0.222,0.148,0.222,0.223,0.222c0.148,0,0.297-0.074,0.443-0.222
			c1.998-2.738,6.291-4.44,10.51-4.589c1.406-0.073,2.441,0.666,2.441,2.072c0,1.036-0.74,2.072-2.072,2.072h-0.074
			c-0.146,0-0.221,0-0.369,0c-5.105,0-10.656,3.33-10.805,8.807c0,1.406-0.074,3.7-0.074,6.513c0,2.812,0.074,6.143,0.074,9.694
			c0,0.74,0.443,1.332,1.258,1.332c1.109,0,1.406,0,2.441-0.074c1.26-0.073,2.221,0.814,2.221,1.999c0,0.962-0.74,1.998-2.146,1.998
			H341.947z"/>
		<path fill="#231815" d="M357.115,39.262c0-10.286,7.254-17.687,17.096-17.687c9.844,0,17.244,7.4,17.244,17.687
			c0,10.657-7.4,17.762-17.244,17.762C364.369,57.023,357.115,49.919,357.115,39.262z M387.088,39.262
			c0-8.362-5.771-13.839-12.877-13.839c-7.104,0-12.803,5.477-12.803,13.839c0,8.289,5.699,13.839,12.803,13.839
			C381.316,53.101,387.088,47.551,387.088,39.262z"/>
		<path fill="#231815" d="M431.635,56.062c-1.924-0.074-3.699-0.148-5.328-0.148c-1.627,0-3.256,0.074-4.959,0.148
			c-0.072,0-0.072,0-0.146,0c-1.332,0-1.998-0.963-1.998-1.925c0-1.924,1.479-1.924,1.998-1.924c1.924,0,1.924-0.444,1.924-0.518
			c0-0.074-0.074-0.223-0.148-0.297c-3.922-3.848-9.99-9.473-12.285-11.841c-0.74-0.813-1.48-0.888-2.221-0.888
			c-1.109,0-1.184,0.666-1.184,4.515c0,1.775,0,4.144,0.074,7.696c0,0.74,0.371,1.258,1.258,1.258c1.111,0,1.037,0,2.072-0.074
			h0.074c1.406,0,2.146,0.963,2.146,1.999c0,1.035-0.74,1.998-2.146,1.998h-0.074c-1.924-0.074-3.848-0.148-5.771-0.148
			c-1.852,0-3.627,0.074-5.328,0.148c-1.703,0.073-2.221-1.11-2.221-1.925c0-1.036,0.74-2.072,2.146-2.072h0.074
			c0.887,0,1.035,0.074,2.219,0.074c0.74,0,1.258-0.443,1.258-1.258c0.148-7.771,0.223-17.762,0.223-26.79
			c0-5.181-0.074-10.139-0.074-14.135c0-2.072-0.592-2.887-2.441-2.96c-1.629,0-1.629,0-1.629,0h-0.074
			C397.74,6.996,397,5.96,397,4.924c0-1.925,1.332-2.146,3.924-2.146c6.068,0,6.586,3.923,6.586,5.551
			c0,9.547-0.148,25.235-0.148,25.235c0,0.814,0.518,1.185,1.258,1.185c0.814,0,1.111-0.074,12.803-8.141
			c0.223-0.148,0.297-0.296,0.297-0.37c0-0.148-0.148-0.223-0.518-0.223c-1.332,0-3.109,0-3.109-1.775
			c0-0.962,0.666-1.925,1.998-1.925c0.074,0,0.074,0,0.148,0c1.85,0.074,3.479,0.074,5.18,0.074c1.629,0,3.404,0,5.33-0.074
			c0.738-0.073,2.145,0.148,2.145,1.925c0,0.962-0.74,1.924-2.072,1.924h-0.072c-1.037,0-0.445-0.074-1.48-0.074
			c-0.592,0-1.332,0.296-1.852,0.666c-4.365,2.96-10.064,6.809-13.689,9.177c-0.445,0.296-0.592,0.519-0.592,0.74
			c0,0.518,1.924,2.294,15.318,14.579c0.74,0.74,1.406,0.888,2.146,0.888c0.295,0,0.666-0.074,1.109-0.074
			c1.184-0.073,2.072,0.666,2.072,1.925c0,1.036-0.666,2.072-2.072,2.072H431.635z"/>
		<path fill="#231815" d="M451.982,56.135c-1.998-0.073-4.217-0.147-6.289-0.147s-4.145,0.074-5.922,0.147
			c-0.295,0-2.293,0.074-2.293-2.071c0-1.036,0.74-2.072,2.221-2.072h0.072c0.963,0,1.406,0.073,2.666,0.073
			c0.887,0,1.332-0.518,1.332-1.479c0.072-7.03,0.146-14.283,0.146-20.722c0-2.146-0.74-3.33-2.516-3.404
			c-0.592,0-0.963,0.074-1.555,0.074c-0.074,0-0.074,0-0.146,0c-1.332,0-1.998-1.036-1.998-1.998c0-1.11,0.738-2.221,2.145-2.221
			s1.186,0.074,2.887,0.074c4.07,0,5.477,2.96,5.477,6.068c0,0.074,0,0.148,0,0.223c-0.074,5.18-0.148,10.805-0.148,16.207
			c0,1.924,0,3.922,0,5.772c0,0.739,0.445,1.405,1.332,1.405c1.184,0,1.48,0,2.59-0.073c0.297,0,2.295-0.074,2.295,2.072
			c0,1.035-0.74,2.071-2.221,2.071H451.982z M444.508,8.846c-0.369,0-3.477,0-3.477-3.552c0-2.368,2.072-3.479,3.551-3.479
			c2.295,0,3.627,1.702,3.627,3.479C448.209,5.886,447.84,8.846,444.508,8.846z"/>
	</g>
</g>
</svg>
